<!-- icon666.com - MILLIONS vector ICONS FREE --><svg version="1.1" id="Layer_1" xmlns="http://www.w3.org/2000/svg" xmlns:xlink="http://www.w3.org/1999/xlink" x="0px" y="0px" viewBox="0 0 512 512" style="enable-background:new 0 0 512 512;" xml:space="preserve"><polygon style="fill:#BFDCFF;" points="0,0 0,400.696 89.043,400.696 89.043,512 200.348,400.696 256,400.696 256,0 "/><g><rect x="256" style="fill:#8BC0FF;" width="256" height="400.696"/><polygon style="fill:#8BC0FF;" points="91.27,116.87 91.27,150.261 256,150.261 267.13,133.565 256,116.87 "/></g><rect x="256" y="116.87" style="fill:#3897FF;" width="164.73" height="33.391"/><polygon style="fill:#8BC0FF;" points="91.27,183.652 91.27,217.043 256,217.043 267.13,200.348 256,183.652 "/><rect x="256" y="183.652" style="fill:#3897FF;" width="164.73" height="33.391"/><polygon style="fill:#8BC0FF;" points="91.27,250.435 91.27,283.826 256,283.826 267.13,267.13 256,250.435 "/><rect x="256" y="250.435" style="fill:#3897FF;" width="164.73" height="33.391"/></svg>